<svg height="496pt" viewBox="0 0 496 496" width="496pt" xmlns="http://www.w3.org/2000/svg"><path d="m488 248c0 132.546875-107.453125 240-240 240s-240-107.453125-240-240 107.453125-240 240-240 240 107.453125 240 240zm0 0" fill="#85d3c1"/><path d="m392 440h-82c1.28125-5.121094 2-10.480469 2-16s-.71875-10.878906-2-16h116.800781c-10.480469 11.839844-22.160156 22.558594-34.800781 32zm0 0" fill="#f5f7fa"/><path d="m69.199219 408h116.800781c-1.28125 5.121094-2 10.480469-2 16s.71875 10.878906 2 16h-82c-12.640625-9.441406-24.320312-20.160156-34.800781-32zm0 0" fill="#f5f7fa"/><path d="m264 328v34c-5.121094-1.28125-10.480469-2-16-2s-10.878906.71875-16 2v-34zm0 0" fill="#f5f7fa"/><path d="m186 408c5.761719-22.480469 23.519531-40.238281 46-46 5.121094-1.28125 10.480469-2 16-2s10.878906.71875 16 2c22.480469 5.761719 40.238281 23.519531 46 46 1.28125 5.121094 2 10.480469 2 16s-.71875 10.878906-2 16c-6.878906 26.558594-30.320312 46.480469-58.640625 47.921875-1.121094.078125-2.238281.078125-3.359375.078125s-2.238281 0-3.359375-.078125c-28.320313-1.441406-51.761719-21.363281-58.640625-47.921875-1.28125-5.121094-2-10.480469-2-16s.71875-10.878906 2-16zm0 0" fill="#ff958a"/><path d="m128 296h240c0 17.679688-14.320312 32-32 32h-176c-17.679688 0-32-14.320312-32-32zm0 0" fill="#f9d48a"/><path d="m368 200v96h-240v-96zm0 0" fill="#f5f7fa"/><path d="m368 104v96h-240v-96zm0 0" fill="#f5f7fa"/><path d="m368 40.078125v63.921875h-240v-64c0-17.679688 14.320312-32 32-32h176c17.679688 0 32 14.320312 32 32zm0 0" fill="#f5f7fa"/><path d="m336 56c0 8.835938-7.164062 16-16 16s-16-7.164062-16-16 7.164062-16 16-16 16 7.164062 16 16zm0 0" fill="#ff958a"/><path d="m192 152c0 8.835938-7.164062 16-16 16s-16-7.164062-16-16 7.164062-16 16-16 16 7.164062 16 16zm0 0" fill="#ff958a"/><path d="m336 248c0 8.835938-7.164062 16-16 16s-16-7.164062-16-16 7.164062-16 16-16 16 7.164062 16 16zm0 0" fill="#ff958a"/><path d="m224 232h-64v32h96v-32zm0 0" fill="#f9d48a"/><path d="m304 136h-64v32h96v-32zm0 0" fill="#f9d48a"/><path d="m224 40h-64v32h96v-32zm0 0" fill="#f9d48a"/><g fill="#232323"><path d="m264 32h-112v48h112zm-48 16v16h-16v-16zm-48 0h16v16h-16zm80 16h-16v-16h16zm0 0"/><path d="m320 80c13.230469 0 24-10.769531 24-24s-10.769531-24-24-24-24 10.769531-24 24 10.769531 24 24 24zm0-32c4.414062 0 8 3.585938 8 8s-3.585938 8-8 8-8-3.585938-8-8 3.585938-8 8-8zm0 0"/><path d="m344 128h-112v48h112zm-48 16v16h-16v-16zm-48 0h16v16h-16zm80 16h-16v-16h16zm0 0"/><path d="m176 176c13.230469 0 24-10.769531 24-24s-10.769531-24-24-24-24 10.769531-24 24 10.769531 24 24 24zm0-32c4.414062 0 8 3.585938 8 8s-3.585938 8-8 8-8-3.585938-8-8 3.585938-8 8-8zm0 0"/><path d="m264 272v-48h-112v48zm-64-16v-16h16v16zm48 0h-16v-16h16zm-80-16h16v16h-16zm0 0"/><path d="m320 272c13.230469 0 24-10.769531 24-24s-10.769531-24-24-24-24 10.769531-24 24 10.769531 24 24 24zm0-32c4.414062 0 8 3.585938 8 8s-3.585938 8-8 8-8-3.585938-8-8 3.585938-8 8-8zm0 0"/><path d="m274.34375 386.34375-26.34375 26.34375-26.34375-26.34375-11.3125 11.3125 26.34375 26.34375-26.34375 26.34375 11.3125 11.3125 26.34375-26.34375 26.34375 26.34375 11.3125-11.3125-26.34375-26.34375 26.34375-26.34375zm0 0"/><path d="m375.535156 35.382812c-2.320312-19.855468-19.0625-35.382812-39.535156-35.382812h-176c-20.472656 0-37.214844 15.527344-39.535156 35.382812-74.375 44.722657-120.464844 125.746094-120.464844 212.617188 0 136.753906 111.246094 248 248 248s248-111.246094 248-248c0-86.886719-46.089844-167.886719-120.464844-212.617188zm104.464844 212.617188c0 58.105469-21.527344 111.246094-56.953125 152h-107.246094c-7.25-20.398438-23.402343-36.550781-43.800781-43.800781v-20.199219h64c22.054688 0 40-17.945312 40-40v-241.480469c64.480469 42.769531 104 115.625 104 193.480469zm-303.527344 184h-69.542968c-6.515626-5-12.738282-10.351562-18.671876-16h88.214844c-.296875 2.632812-.472656 5.296875-.472656 8s.175781 5.367188.472656 8zm3.726563 16c3.511719 9.878906 9.074219 18.785156 16.242187 26.152344-23.480468-5.351563-45.617187-14.257813-65.808594-26.152344zm11.800781-24c0-30.871094 25.128906-56 56-56s56 25.128906 56 56-25.128906 56-56 56-56-25.128906-56-56zm168-136h-224v-80h224zm0-96h-224v-80h224zm-1.472656 112c-3.3125 9.289062-12.113282 16-22.527344 16h-176c-10.414062 0-19.214844-6.710938-22.527344-16zm-102.527344 32v16.472656c-2.632812-.296875-5.296875-.472656-8-.472656s-5.367188.175781-8 .472656v-16.472656zm59.800781 112h49.566407c-20.191407 11.894531-42.328126 20.800781-65.808594 26.152344 7.167968-7.367188 12.730468-16.273438 16.242187-26.152344zm3.726563-16c.296875-2.632812.472656-5.296875.472656-8s-.175781-5.367188-.472656-8h88.214844c-5.933594 5.648438-12.167969 11-18.671876 16zm-159.527344-416h176c13.230469 0 24 10.769531 24 24v56h-224v-56c0-13.230469 10.769531-24 24-24zm-40 38.527344v241.472656c0 22.054688 17.945312 40 40 40h64v20.199219c-20.398438 7.25-36.550781 23.402343-43.800781 43.800781h-107.246094c-35.425781-40.753906-56.953125-93.894531-56.953125-152 0-77.832031 39.527344-150.695312 104-193.472656zm0 0"/></g></svg>